HIERARCHY
ROOT Hips
{
	OFFSET 0.000000 87.230942 0.000000
	CHANNELS 6 Xposition Yposition Zposition Xrotation Yrotation Zrotation
	JOINT Pelvis
	{
		OFFSET 0.000000 0.000000 0.000000
		CHANNELS 3 Xrotation Yrotation Zrotation
		JOINT LeftUpLeg
		{
			OFFSET 12.017000 -9.376404 -2.439400
			CHANNELS 3 Xrotation Yrotation Zrotation
			JOINT LeftLeg
			{
				OFFSET -0.007312 -32.846973 2.110600
				CHANNELS 3 Xrotation Yrotation Zrotation
				JOINT LeftFoot
				{
					OFFSET 0.007312 -32.065170 -0.570400
					CHANNELS 3 Xrotation Yrotation Zrotation
					JOINT LeftToeBase
					{
						OFFSET 0.728300 -11.045900 13.180700
						CHANNELS 3 Xrotation Yrotation Zrotation
						End Site
						{
							OFFSET 0.000000 17.212589 0.000000
						}
					}
				}
				JOINT LeftPantLeg
				{
					OFFSET 0.002788 -16.709013 -3.143600
					CHANNELS 3 Xrotation Yrotation Zrotation
					End Site
					{
						OFFSET -0.605125 24.528742 0.000000
					}
				}
			}
			JOINT Left_Butt
			{
				OFFSET -6.630234 1.326584 -3.183700
				CHANNELS 3 Xrotation Yrotation Zrotation
				End Site
				{
					OFFSET -0.498041 20.188049 0.000000
				}
			}
		}
		JOINT RightUpLeg
		{
			OFFSET -11.717000 -9.376404 -2.439400
			CHANNELS 3 Xrotation Yrotation Zrotation
			JOINT RightLeg
			{
				OFFSET -0.003241 -32.846912 2.110600
				CHANNELS 3 Xrotation Yrotation Zrotation
				JOINT RightFoot
				{
					OFFSET 0.003241 -32.065136 -0.570500
					CHANNELS 3 Xrotation Yrotation Zrotation
					JOINT RightToeBase
					{
						OFFSET -0.728300 -11.045901 13.180700
						CHANNELS 3 Xrotation Yrotation Zrotation
						End Site
						{
							OFFSET 0.000000 17.212593 0.000000
						}
					}
				}
				JOINT RightPantLeg
				{
					OFFSET 0.008142 -16.708982 -3.143700
					CHANNELS 3 Xrotation Yrotation Zrotation
					End Site
					{
						OFFSET 0.605088 24.528715 0.000000
					}
				}
			}
			JOINT Right_Butt
			{
				OFFSET 6.630732 1.326584 -3.183700
				CHANNELS 3 Xrotation Yrotation Zrotation
				End Site
				{
					OFFSET 0.498015 20.188240 0.000000
				}
			}
		}
	}
	JOINT Spine
	{
		OFFSET -0.062400 7.848404 3.918300
		CHANNELS 3 Xrotation Yrotation Zrotation
		JOINT Spine1
		{
			OFFSET -0.072800 11.422302 0.713400
			CHANNELS 3 Xrotation Yrotation Zrotation
			JOINT Spine2
			{
				OFFSET -0.083200 13.054001 -1.931600
				CHANNELS 3 Xrotation Yrotation Zrotation
				JOINT Neck
				{
					OFFSET -0.092200 14.121796 -5.138800
					CHANNELS 3 Xrotation Yrotation Zrotation
					JOINT Head
					{
						OFFSET 0.000200 10.447403 -0.842000
						CHANNELS 3 Xrotation Yrotation Zrotation
						JOINT Visor
						{
							OFFSET 0.457100 25.671204 16.550400
							CHANNELS 3 Xrotation Yrotation Zrotation
							End Site
							{
								OFFSET 0.000000 26.061493 0.000000
							}
						}
						JOINT HairMidA
						{
							OFFSET 0.459400 31.585403 8.437400
							CHANNELS 3 Xrotation Yrotation Zrotation
							End Site
							{
								OFFSET 0.000000 26.061493 0.000000
							}
						}
						JOINT HairMidB
						{
							OFFSET 0.464000 33.309204 -8.389700
							CHANNELS 3 Xrotation Yrotation Zrotation
							End Site
							{
								OFFSET 0.000000 26.061493 0.000000
							}
						}
						JOINT HairMidC
						{
							OFFSET 0.466600 27.991196 -17.375099
							CHANNELS 3 Xrotation Yrotation Zrotation
							End Site
							{
								OFFSET 0.000000 26.061493 0.000000
							}
						}
						JOINT HairMidD
						{
							OFFSET 0.467700 17.888092 -21.169500
							CHANNELS 3 Xrotation Yrotation Zrotation
							End Site
							{
								OFFSET 0.000000 26.061493 0.000000
							}
						}
						JOINT HairMidE
						{
							OFFSET 5.325700 3.514603 -14.369699
							CHANNELS 3 Xrotation Yrotation Zrotation
							End Site
							{
								OFFSET 0.000000 26.061493 0.000000
							}
						}
						JOINT HairMidF
						{
							OFFSET -4.394100 3.514603 -14.372400
							CHANNELS 3 Xrotation Yrotation Zrotation
							End Site
							{
								OFFSET 0.000000 26.061493 0.000000
							}
						}
						JOINT HairLeftA
						{
							OFFSET 15.319900 25.746506 2.623300
							CHANNELS 3 Xrotation Yrotation Zrotation
							End Site
							{
								OFFSET 0.000000 26.061493 0.000000
							}
						}
						JOINT HairLeftB
						{
							OFFSET 12.619500 29.289398 -8.731499
							CHANNELS 3 Xrotation Yrotation Zrotation
							End Site
							{
								OFFSET 0.000000 26.061493 0.000000
							}
						}
						JOINT HairLeftC
						{
							OFFSET 15.714800 15.959900 2.909800
							CHANNELS 3 Xrotation Yrotation Zrotation
							End Site
							{
								OFFSET 0.000000 26.061493 0.000000
							}
						}
						JOINT HairLeftD
						{
							OFFSET 16.101700 18.437408 -7.553200
							CHANNELS 3 Xrotation Yrotation Zrotation
							End Site
							{
								OFFSET 0.000000 26.061493 0.000000
							}
						}
						JOINT HairLeftE
						{
							OFFSET 9.731900 17.915009 -18.316799
							CHANNELS 3 Xrotation Yrotation Zrotation
							End Site
							{
								OFFSET 0.000000 26.061493 0.000000
							}
						}
						JOINT HairLeftF
						{
							OFFSET 11.204300 4.953598 -9.668100
							CHANNELS 3 Xrotation Yrotation Zrotation
							End Site
							{
								OFFSET 0.000000 26.061493 0.000000
							}
						}
						JOINT HairRightA
						{
							OFFSET -14.397900 25.746307 2.615100
							CHANNELS 3 Xrotation Yrotation Zrotation
							End Site
							{
								OFFSET 0.000000 26.061493 0.000000
							}
						}
						JOINT HairRightB
						{
							OFFSET -11.691200 29.289200 -8.738199
							CHANNELS 3 Xrotation Yrotation Zrotation
							End Site
							{
								OFFSET 0.000000 26.061493 0.000000
							}
						}
						JOINT HairRightC
						{
							OFFSET -14.792900 15.959702 2.901400
							CHANNELS 3 Xrotation Yrotation Zrotation
							End Site
							{
								OFFSET 0.000000 26.061493 0.000000
							}
						}
						JOINT HairRightD
						{
							OFFSET -15.174000 18.437195 -7.561900
							CHANNELS 3 Xrotation Yrotation Zrotation
							End Site
							{
								OFFSET 0.000000 26.061493 0.000000
							}
						}
						JOINT HairRightE
						{
							OFFSET -8.798200 17.914902 -18.322001
							CHANNELS 3 Xrotation Yrotation Zrotation
							End Site
							{
								OFFSET 0.000000 26.061493 0.000000
							}
						}
						JOINT HairRightF
						{
							OFFSET -10.275200 4.953506 -9.674099
							CHANNELS 3 Xrotation Yrotation Zrotation
							End Site
							{
								OFFSET 0.000000 26.061493 0.000000
							}
						}
					}
				}
				JOINT LeftShoulder
				{
					OFFSET 5.133500 7.341202 -1.867600
					CHANNELS 3 Xrotation Yrotation Zrotation
					JOINT LeftArm
					{
						OFFSET 8.072663 0.936867 -2.176600
						CHANNELS 3 Xrotation Yrotation Zrotation
						JOINT LeftForeArm
						{
							OFFSET 31.271999 0.000000 0.000000
							CHANNELS 3 Xrotation Yrotation Zrotation
							JOINT LeftHand
							{
								OFFSET 31.771030 0.000000 0.000000
								CHANNELS 3 Xrotation Yrotation Zrotation
								JOINT LeftHandThumb1
								{
									OFFSET 2.886520 -2.557846 4.416640
									CHANNELS 3 Xrotation Yrotation Zrotation
									JOINT LeftHandThumb2
									{
										OFFSET 2.371025 -1.368912 1.368911
										CHANNELS 3 Xrotation Yrotation Zrotation
										JOINT LeftHandThumb3
										{
											OFFSET 2.243378 -1.295212 1.295213
											CHANNELS 3 Xrotation Yrotation Zrotation
											End Site
											{
												OFFSET -0.332611 2.876945 0.020015
											}
										}
									}
								}
								JOINT LeftHandIndex1
								{
									OFFSET 8.568985 -0.641945 3.119977
									CHANNELS 3 Xrotation Yrotation Zrotation
									JOINT LeftHandIndex2
									{
										OFFSET 3.348503 0.000000 0.000000
										CHANNELS 3 Xrotation Yrotation Zrotation
										JOINT LeftHandIndex3
										{
											OFFSET 3.314552 0.000000 0.000000
											CHANNELS 3 Xrotation Yrotation Zrotation
											End Site
											{
												OFFSET -1.032898 3.075485 0.678796
											}
										}
									}
								}
								JOINT LeftHandMiddle1
								{
									OFFSET 8.124603 0.000000 0.000000
									CHANNELS 3 Xrotation Yrotation Zrotation
									JOINT LeftHandMiddle2
									{
										OFFSET 4.166275 0.000000 0.000000
										CHANNELS 3 Xrotation Yrotation Zrotation
										JOINT LeftHandMiddle3
										{
											OFFSET 3.018135 0.000000 0.000000
											CHANNELS 3 Xrotation Yrotation Zrotation
											End Site
											{
												OFFSET -1.032700 2.767982 0.617226
											}
										}
									}
								}
								JOINT LeftHandRing1
								{
									OFFSET 8.571686 -0.031357 -2.884048
									CHANNELS 3 Xrotation Yrotation Zrotation
									JOINT LeftHandRing2
									{
										OFFSET 3.671181 0.000000 0.000000
										CHANNELS 3 Xrotation Yrotation Zrotation
										JOINT LeftHandRing3
										{
											OFFSET 2.728851 0.000000 0.000000
											CHANNELS 3 Xrotation Yrotation Zrotation
											End Site
											{
												OFFSET -0.815796 2.539223 0.577389
											}
										}
									}
								}
								JOINT LeftHandPinky1
								{
									OFFSET 7.854515 -0.675232 -5.213020
									CHANNELS 3 Xrotation Yrotation Zrotation
									JOINT LeftHandPinky2
									{
										OFFSET 3.068596 0.000000 0.000000
										CHANNELS 3 Xrotation Yrotation Zrotation
										JOINT LeftHandPinky3
										{
											OFFSET 2.396042 0.000000 0.000000
											CHANNELS 3 Xrotation Yrotation Zrotation
											End Site
											{
												OFFSET -0.524597 2.267998 0.567429
											}
										}
									}
								}
							}
							JOINT LeftSleeve
							{
								OFFSET 19.684509 -0.200119 0.476146
								CHANNELS 3 Xrotation Yrotation Zrotation
								End Site
								{
									OFFSET -0.031017 25.731133 -0.002868
								}
							}
						}
					}
				}
				JOINT RightShoulder
				{
					OFFSET -4.395900 7.341202 -1.870200
					CHANNELS 3 Xrotation Yrotation Zrotation
					JOINT RightArm
					{
						OFFSET -8.071453 0.936867 -2.181100
						CHANNELS 3 Xrotation Yrotation Zrotation
						JOINT RightForeArm
						{
							OFFSET -31.272011 0.000000 0.000000
							CHANNELS 3 Xrotation Yrotation Zrotation
							JOINT RightHand
							{
								OFFSET -31.771019 0.000000 0.000000
								CHANNELS 3 Xrotation Yrotation Zrotation
								JOINT RightHandThumb1
								{
									OFFSET -2.886520 -2.557808 4.416626
									CHANNELS 3 Xrotation Yrotation Zrotation
									JOINT RightHandThumb2
									{
										OFFSET -2.371056 -1.368927 1.368928
										CHANNELS 3 Xrotation Yrotation Zrotation
										JOINT RightHandThumb3
										{
											OFFSET -2.243362 -1.295204 1.295206
											CHANNELS 3 Xrotation Yrotation Zrotation
											End Site
											{
												OFFSET 0.332642 2.876938 0.020047
											}
										}
									}
								}
								JOINT RightHandIndex1
								{
									OFFSET -8.568993 -0.641953 3.120017
									CHANNELS 3 Xrotation Yrotation Zrotation
									JOINT RightHandIndex2
									{
										OFFSET -3.348518 0.000000 0.000000
										CHANNELS 3 Xrotation Yrotation Zrotation
										JOINT RightHandIndex3
										{
											OFFSET -3.314552 0.000000 0.000000
											CHANNELS 3 Xrotation Yrotation Zrotation
											End Site
											{
												OFFSET 1.032898 3.075478 0.678804
											}
										}
									}
								}
								JOINT RightHandMiddle1
								{
									OFFSET -8.124588 0.000000 0.000000
									CHANNELS 3 Xrotation Yrotation Zrotation
									JOINT RightHandMiddle2
									{
										OFFSET -4.166275 0.000000 0.000000
										CHANNELS 3 Xrotation Yrotation Zrotation
										JOINT RightHandMiddle3
										{
											OFFSET -3.018097 0.000000 0.000000
											CHANNELS 3 Xrotation Yrotation Zrotation
											End Site
											{
												OFFSET 1.032700 2.767937 0.617197
											}
										}
									}
								}
								JOINT RightHandRing1
								{
									OFFSET -8.571747 -0.031349 -2.884061
									CHANNELS 3 Xrotation Yrotation Zrotation
									JOINT RightHandRing2
									{
										OFFSET -3.671204 0.000000 0.000000
										CHANNELS 3 Xrotation Yrotation Zrotation
										JOINT RightHandRing3
										{
											OFFSET -2.728874 0.000000 0.000000
											CHANNELS 3 Xrotation Yrotation Zrotation
											End Site
											{
												OFFSET 0.815804 2.539261 0.577413
											}
										}
									}
								}
								JOINT RightHandPinky1
								{
									OFFSET -7.854561 -0.675247 -5.212970
									CHANNELS 3 Xrotation Yrotation Zrotation
									JOINT RightHandPinky2
									{
										OFFSET -3.068550 0.000000 0.000000
										CHANNELS 3 Xrotation Yrotation Zrotation
										JOINT RightHandPinky3
										{
											OFFSET -2.395981 0.000000 0.000000
											CHANNELS 3 Xrotation Yrotation Zrotation
											End Site
											{
												OFFSET 0.524605 2.267952 0.567413
											}
										}
									}
								}
							}
							JOINT RightSleeve
							{
								OFFSET -19.684753 -0.200165 0.476065
								CHANNELS 3 Xrotation Yrotation Zrotation
								End Site
								{
									OFFSET 0.031342 25.731255 -0.002917
								}
							}
						}
					}
				}
				JOINT Hood
				{
					OFFSET 0.369700 14.447800 -5.317800
					CHANNELS 3 Xrotation Yrotation Zrotation
					JOINT Hood1
					{
						OFFSET 0.001700 -5.553802 -5.895100
						CHANNELS 3 Xrotation Yrotation Zrotation
						JOINT Hood2
						{
							OFFSET -0.000200 -8.380501 0.763600
							CHANNELS 3 Xrotation Yrotation Zrotation
							End Site
							{
								OFFSET 0.000000 8.415215 0.000000
							}
						}
					}
				}
				JOINT Left_Breast
				{
					OFFSET 5.682500 3.120102 3.188800
					CHANNELS 3 Xrotation Yrotation Zrotation
					End Site
					{
						OFFSET 0.000000 10.528564 0.000000
					}
				}
				JOINT Right_Breast
				{
					OFFSET -4.947600 3.120102 3.185900
					CHANNELS 3 Xrotation Yrotation Zrotation
					End Site
					{
						OFFSET 0.000000 10.528564 0.000000
					}
				}
				JOINT Whistle
				{
					OFFSET 0.368200 11.471298 0.095400
					CHANNELS 3 Xrotation Yrotation Zrotation
					JOINT Whistle1
					{
						OFFSET -0.002000 -6.349899 7.479800
						CHANNELS 3 Xrotation Yrotation Zrotation
						JOINT Whistle2
						{
							OFFSET -0.001300 -8.217598 4.717600
							CHANNELS 3 Xrotation Yrotation Zrotation
							End Site
							{
								OFFSET 0.000000 9.475479 0.000000
							}
						}
					}
				}
			}
		}
		JOINT Belly
		{
			OFFSET 0.212400 1.593002 3.163700
			CHANNELS 3 Xrotation Yrotation Zrotation
			End Site
			{
				OFFSET 0.000000 7.496635 0.000000
			}
		}
	}
	JOINT FitGrandmaFacialAnim_Joint
	{
		OFFSET 1.150000 -86.211197 -1.220100
		CHANNELS 3 Xrotation Yrotation Zrotation
		End Site
		{
			OFFSET 0.000000 31.666618 0.000000
		}
	}
}
MOTION
Frames: 4
Frame Time: 0.016667
-1.660938 69.281937 6.341618 26.322215 -23.041068 8.833255 0.000001 -0.000001 -0.000000 -72.588027 -0.233360 23.970996 61.778262 -2.177109 4.911949 -11.191910 2.804654 -18.454961 0.000000 0.000000 0.000000 0.000001 -0.000000 0.000003 -0.000000 -0.000000 0.000000 -67.074718 -7.039254 -22.942226 65.948174 -0.198365 -7.649483 -20.714442 -4.169899 17.679530 0.000000 -0.000002 0.000000 -0.000004 0.000003 0.000003 0.000002 -0.000002 -0.000001 14.948392 2.493959 -0.858096 8.954930 1.454252 -0.667650 8.929231 1.567214 -0.769623 -7.642847 3.429843 -7.508563 -43.074779 9.987860 7.921034 -0.000000 0.000000 -0.000001 -0.000000 0.000000 -0.000001 -0.000000 0.000000 -0.000001 -0.000000 0.000000 -0.000001 -0.000000 0.000000 -0.000001 -0.000000 0.000000 -0.000001 -0.000000 0.000000 -0.000001 -0.000000 0.000000 -0.000001 -0.000000 0.000000 -0.000001 -0.000000 0.000000 -0.000001 -0.000000 0.000000 -0.000001 -0.000000 0.000000 -0.000001 -0.000000 0.000000 -0.000001 -0.000000 0.000000 -0.000001 -0.000000 0.000000 -0.000001 -0.000000 0.000000 -0.000001 -0.000000 0.000000 -0.000001 -0.000000 0.000000 -0.000001 -0.000000 0.000000 -0.000001 3.858316 -6.469474 9.422133 -49.881066 5.784873 -65.370935 -0.001619 -89.198446 -0.001188 6.361856 1.183428 20.596038 -17.636602 -15.237850 2.797097 5.947448 34.911648 2.502016 0.000000 -0.000000 0.000001 0.388053 -2.283059 19.290718 0.587316 2.787363 -23.793326 -0.000002 0.000000 0.000001 0.388690 -2.284888 19.306725 0.588103 2.789115 -23.809356 -0.000001 -0.000002 -0.000002 0.388049 -2.283078 19.290710 0.587340 2.787389 -23.793312 0.000003 0.000001 -0.000001 -0.967839 1.537871 19.792324 0.593514 -1.272016 -24.261669 0.000002 -0.000001 -0.000001 0.000004 -0.000000 -0.000001 3.960226 12.222855 4.273396 -38.946920 11.840050 48.020810 0.009888 93.734962 -0.009804 19.436172 10.205508 7.992471 30.641414 13.211229 -0.281790 7.057594 -37.365895 -1.833691 0.000001 0.000001 0.000000 0.155610 1.465691 -12.119898 0.379761 -2.270648 18.987432 0.000002 -0.000001 0.000001 0.155617 1.465708 -12.119903 0.379773 -2.270646 18.987420 -0.000000 -0.000002 -0.000000 0.155609 1.465716 -12.119895 0.379775 -2.270652 18.987415 0.000001 -0.000000 -0.000001 0.155621 1.465710 -12.119901 0.379770 -2.270641 18.987420 -0.000001 0.000000 0.000003 -0.000002 -0.000001 -0.000000 -0.000001 -0.000001 -0.000001 -0.000001 -0.000001 -0.000001 -0.000001 -0.000001 -0.000001 -0.000001 -0.000001 -0.000001 -0.000001 -0.000001 -0.000001 -0.000001 -0.000001 -0.000001 0.000004 -0.000000 -0.000001 0.000004 -0.000000 -0.000001 -0.000000 0.000001 0.000001 0.000001 -0.000001 -0.000000 
-1.683170 69.349022 6.410343 26.447240 -23.103489 8.887325 0.000002 -0.000003 0.000001 -72.526357 -0.165627 24.014088 61.679866 -2.233898 4.931518 -11.280123 2.828218 -18.504985 -0.000000 0.000000 -0.000000 -0.000000 0.000001 0.000002 -0.000003 -0.000000 -0.000000 -67.023062 -7.132236 -22.822483 65.743918 -0.328703 -7.774667 -20.722271 -4.023962 17.639075 -0.000000 -0.000001 -0.000000 -0.000002 0.000000 -0.000001 -0.000000 -0.000002 0.000002 14.956140 2.359289 -0.896839 8.942664 1.377977 -0.669282 8.917264 1.494830 -0.768342 -7.594619 3.504788 -7.365771 -43.161321 10.368546 7.992464 -0.000000 0.000000 0.000000 -0.000000 0.000000 0.000000 -0.000000 0.000000 0.000000 -0.000000 0.000000 0.000000 -0.000000 0.000000 0.000000 -0.000000 0.000000 0.000000 -0.000000 0.000000 0.000000 -0.000000 0.000000 0.000000 -0.000000 0.000000 0.000000 -0.000000 0.000000 0.000000 -0.000000 0.000000 0.000000 -0.000000 0.000000 0.000000 -0.000000 0.000000 0.000000 -0.000000 0.000000 0.000000 -0.000000 0.000000 0.000000 -0.000000 0.000000 0.000000 -0.000000 0.000000 0.000000 -0.000000 0.000000 0.000000 -0.000000 0.000000 0.000000 3.797565 -6.379663 8.897872 -49.025062 5.833144 -65.558580 -0.009553 -90.336232 -0.009678 6.494229 1.888095 21.591270 -17.777630 -15.392953 2.760416 5.958640 35.079944 2.510939 0.000001 0.000001 0.000001 0.392776 -2.296480 19.408857 0.610802 2.839916 -24.271497 0.000002 -0.000000 0.000000 0.393419 -2.298313 19.424863 0.611600 2.841718 -24.287495 -0.000002 -0.000001 0.000000 0.392784 -2.296498 19.408860 0.610809 2.839952 -24.271494 0.000001 0.000000 -0.000001 -0.970971 1.521640 19.910048 0.617391 -1.219622 -24.738167 0.000003 -0.000001 -0.000000 0.000000 0.000001 0.000002 3.972545 12.168646 4.140063 -38.744463 11.705570 49.039973 0.000533 95.072012 -0.000582 22.139742 11.186724 7.333640 30.626438 13.316674 -0.202561 7.068269 -37.497786 -1.838812 -0.000000 0.000002 -0.000002 0.168389 1.523981 -12.609640 0.421741 -2.389091 20.020292 -0.000001 -0.000001 0.000001 0.168391 1.523975 -12.609654 0.421760 -2.389076 20.020287 0.000000 0.000001 -0.000001 0.168392 1.523978 -12.609657 0.421765 -2.389074 20.020292 -0.000003 -0.000001 -0.000001 0.168391 1.523983 -12.609649 0.421751 -2.389070 20.020295 -0.000001 0.000000 0.000002 0.000002 -0.000000 -0.000000 -0.000001 0.000000 0.000000 -0.000001 0.000000 0.000000 -0.000001 0.000000 0.000000 -0.000001 0.000000 0.000000 -0.000001 0.000000 0.000000 -0.000001 0.000000 0.000000 0.000000 0.000000 0.000000 0.000000 0.000000 0.000000 0.000002 -0.000001 0.000002 0.000002 -0.000003 0.000001 
-1.716339 69.389977 6.462347 26.593960 -23.182601 8.957978 0.000000 -0.000000 0.000000 -72.502349 -0.135846 24.070775 61.621789 -2.265190 4.956638 -11.368022 2.856522 -18.591585 -0.000000 -0.000000 -0.000000 -0.000001 0.000000 0.000003 -0.000000 0.000000 -0.000000 -67.035479 -7.182961 -22.684204 65.619635 -0.324370 -7.876113 -20.737800 -4.014177 17.576503 0.000000 -0.000004 -0.000000 -0.000002 -0.000002 0.000003 -0.000001 0.000002 0.000002 14.962153 2.212408 -0.915551 8.932678 1.291006 -0.662406 8.908018 1.411639 -0.757969 -7.575332 3.601990 -7.236723 -43.266680 10.835725 8.058441 -0.000000 -0.000000 0.000000 -0.000000 -0.000000 0.000000 -0.000000 -0.000000 0.000000 -0.000000 -0.000000 0.000000 -0.000000 -0.000000 0.000000 -0.000000 -0.000000 0.000000 -0.000000 -0.000000 0.000000 -0.000000 -0.000000 0.000000 -0.000000 -0.000000 0.000000 -0.000000 -0.000000 0.000000 -0.000000 -0.000000 0.000000 -0.000000 -0.000000 0.000000 -0.000000 -0.000000 0.000000 -0.000000 -0.000000 0.000000 -0.000000 -0.000000 0.000000 -0.000000 -0.000000 0.000000 -0.000000 -0.000000 0.000000 -0.000000 -0.000000 0.000000 -0.000000 -0.000000 0.000000 3.730452 -6.286348 8.218749 -48.220227 5.755350 -65.566599 0.006619 -91.419575 0.006615 6.568304 2.351842 22.524203 -17.920190 -15.550478 2.725541 5.970005 35.250500 2.519959 -0.000002 -0.000002 -0.000001 0.397592 -2.310107 19.528573 0.616503 2.852515 -24.386255 -0.000004 -0.000002 0.000002 0.398232 -2.311924 19.544576 0.617303 2.854276 -24.402268 -0.000004 -0.000001 0.000000 0.397598 -2.310115 19.528570 0.616507 2.852551 -24.386243 0.000002 0.000001 -0.000001 -0.974135 1.505195 20.029356 0.623200 -1.207095 -24.852512 0.000000 -0.000001 0.000001 0.000000 -0.000000 -0.000001 3.981623 12.107284 3.979454 -38.415853 11.620494 49.978772 0.001126 96.616502 -0.001088 23.882026 11.595332 6.699897 30.612894 13.427143 -0.120938 7.079080 -37.631460 -1.843972 -0.000001 0.000002 0.000000 0.181690 1.582203 -13.100024 0.465955 -2.506950 21.054750 0.000001 0.000000 0.000001 0.181685 1.582204 -13.100027 0.465950 -2.506936 21.054751 0.000001 -0.000001 0.000002 0.181691 1.582215 -13.100021 0.465950 -2.506954 21.054738 0.000003 -0.000001 -0.000001 0.181693 1.582222 -13.100028 0.465938 -2.506939 21.054741 0.000001 0.000001 0.000001 -0.000002 0.000000 -0.000001 -0.000004 -0.000000 0.000000 -0.000004 -0.000000 0.000000 -0.000004 -0.000000 0.000000 -0.000004 -0.000000 0.000000 -0.000004 -0.000000 0.000000 -0.000005 -0.000000 0.000000 0.000000 -0.000001 0.000002 0.000000 -0.000001 0.000002 0.000001 0.000000 0.000001 0.000000 -0.000000 0.000000 
-1.761772 69.405769 6.498621 26.760884 -23.273508 9.047947 0.000001 -0.000000 0.000000 -72.513284 -0.134479 24.136314 61.596934 -2.275513 4.990417 -11.453849 2.888232 -18.707038 -0.000000 -0.000000 0.000000 0.000001 0.000001 -0.000000 0.000003 -0.000001 -0.000000 -67.108651 -7.195410 -22.526176 65.561244 -0.327126 -7.982499 -20.766832 -4.016645 17.534146 -0.000000 -0.000004 0.000000 -0.000003 -0.000002 0.000002 -0.000001 -0.000002 0.000001 14.970890 2.063815 -0.911933 8.925402 1.196946 -0.646761 8.901919 1.320521 -0.738016 -7.587606 3.716969 -7.129053 -43.384996 11.376618 8.087227 -0.000000 0.000000 -0.000001 -0.000000 0.000000 -0.000001 -0.000000 0.000000 -0.000001 -0.000000 0.000000 -0.000001 -0.000000 0.000000 -0.000001 -0.000000 0.000000 -0.000001 -0.000000 0.000000 -0.000001 -0.000000 0.000000 -0.000001 -0.000000 0.000000 -0.000001 -0.000000 0.000000 -0.000001 -0.000000 0.000000 -0.000001 -0.000000 0.000000 -0.000001 -0.000000 0.000000 -0.000001 -0.000000 0.000000 -0.000001 -0.000000 0.000000 -0.000001 -0.000000 0.000000 -0.000001 -0.000000 0.000000 -0.000001 -0.000000 0.000000 -0.000001 -0.000000 0.000000 -0.000001 3.660250 -6.192013 7.427276 -47.464030 5.638799 -65.420966 -0.009991 -92.433981 -0.010071 6.579921 2.602527 23.316924 -18.073946 -15.721274 2.690569 5.981499 35.423444 2.529104 0.000000 -0.000000 0.000001 0.402497 -2.323878 19.649974 0.622305 2.865282 -24.502616 0.000000 -0.000001 0.000000 0.403147 -2.325707 19.665967 0.623107 2.867041 -24.518641 -0.000004 -0.000001 0.000000 0.402501 -2.323891 19.649971 0.622310 2.865303 -24.502617 0.000002 0.000003 -0.000001 -0.977282 1.488495 20.150332 0.629098 -1.194376 -24.968474 0.000002 -0.000000 0.000001 -0.000001 -0.000001 -0.000000 3.982096 12.033535 3.810703 -38.063302 11.622193 50.879595 0.000381 98.202090 -0.000398 24.991841 11.467086 6.028746 30.609445 13.454861 -0.100483 7.090053 -37.767012 -1.849190 0.000000 0.000002 -0.000000 0.195490 1.640376 -13.591131 0.512341 -2.624119 22.090908 0.000000 -0.000001 0.000005 0.195487 1.640393 -13.591128 0.512326 -2.624122 22.090906 0.000000 0.000000 -0.000001 0.195487 1.640399 -13.591126 0.512333 -2.624133 22.090910 -0.000002 0.000002 -0.000000 0.195482 1.640398 -13.591124 0.512331 -2.624115 22.090908 -0.000001 0.000003 0.000001 -0.000000 0.000001 -0.000000 -0.000005 -0.000000 0.000001 -0.000005 -0.000000 0.000001 -0.000005 -0.000000 0.000001 -0.000005 -0.000000 0.000001 -0.000005 -0.000000 0.000001 -0.000005 -0.000000 0.000001 -0.000001 -0.000000 0.000001 -0.000001 -0.000000 0.000001 0.000001 -0.000001 0.000001 0.000001 -0.000000 0.000000 
